<?xml version="1.0" encoding="UTF-8" standalone="no"?>
<!-- Created with Inkscape (http://www.inkscape.org/) -->

<svg
   xmlns:dc="http://purl.org/dc/elements/1.1/"
   xmlns:cc="http://creativecommons.org/ns#"
   xmlns:rdf="http://www.w3.org/1999/02/22-rdf-syntax-ns#"
   xmlns:svg="http://www.w3.org/2000/svg"
   xmlns="http://www.w3.org/2000/svg"
   xmlns:sodipodi="http://sodipodi.sourceforge.net/DTD/sodipodi-0.dtd"
   xmlns:inkscape="http://www.inkscape.org/namespaces/inkscape"
   width="874.14575mm"
   height="874.20184mm"
   viewBox="0 0 874.14576 874.20185"
   version="1.1"
   id="svg1091"
   inkscape:version="0.92.5 (2060ec1f9f, 2020-04-08)"
   sodipodi:docname="searchrank.svg">
  <defs
     id="defs1085" />
  <sodipodi:namedview
     id="base"
     pagecolor="#ffffff"
     bordercolor="#666666"
     borderopacity="1.0"
     inkscape:pageopacity="0.0"
     inkscape:pageshadow="2"
     inkscape:zoom="0.043750001"
     inkscape:cx="-1249.9918"
     inkscape:cy="303.62696"
     inkscape:document-units="mm"
     inkscape:current-layer="layer1"
     showgrid="false"
     fit-margin-top="0"
     fit-margin-left="0"
     fit-margin-right="0"
     fit-margin-bottom="0"
     inkscape:window-width="1366"
     inkscape:window-height="716"
     inkscape:window-x="0"
     inkscape:window-y="0"
     inkscape:window-maximized="1"
     inkscape:snap-global="false" />
  <metadata
     id="metadata1088">
    <rdf:RDF>
      <cc:Work
         rdf:about="">
        <dc:format>image/svg+xml</dc:format>
        <dc:type
           rdf:resource="http://purl.org/dc/dcmitype/StillImage" />
        <dc:title></dc:title>
      </cc:Work>
    </rdf:RDF>
  </metadata>
  <g
     inkscape:label="Layer 1"
     inkscape:groupmode="layer"
     id="layer1"
     transform="translate(272.50144,441.7795)">
    <g
       id="XMLID_1_"
       transform="matrix(0.48902299,0,0,0.48902299,-139.74778,-239.1746)"
       style="fill:#a6a6a6;fill-opacity:1;stroke:none;stroke-opacity:1">
      <path
         id="path937"
         d="M 918.6,515.1 H 0 C 14.7,359.4 103.7,226.4 235.1,155.2 l -76.2,-132 c -4.3,-7.4 -1.8,-16.8 5.6,-21.1 7.4,-4.3 16.8,-1.8 21.1,5.6 l 77.2,133.7 C 321.7,114.5 388,99.5 459.3,99.5 c 71.3,0 137.6,15 196.5,41.9 L 733,7.7 c 4.2,-7.4 13.7,-9.9 21,-5.6 7.3,4.3 9.9,13.7 5.6,21.1 l -76.2,132 c 131.5,71.2 220.5,204.2 235.2,359.9 z m -248.5,-129 c 21.3,0 38.6,-17.3 38.5,-38.5 0,-21.2 -17.2,-38.5 -38.5,-38.5 -21.2,0 -38.5,17.2 -38.5,38.5 0,21.2 17.2,38.5 38.5,38.5 z m -421.7,0 c 21.3,0 38.6,-17.3 38.5,-38.5 0,-21.2 -17.2,-38.5 -38.5,-38.5 -21.2,0 -38.5,17.2 -38.5,38.5 0,21.2 17.2,38.5 38.5,38.5 z"
         class="st0"
         inkscape:connector-curvature="0"
         style="fill:#a6a6a6;fill-opacity:1;stroke:none;stroke-opacity:1" />
    </g>
    <path
       style="fill:#929292;fill-opacity:1;stroke-width:11.30441189"
       d="M 1398.7578,0.01171875 C 1345.262,0.26797072 1291.5217,3.7086637 1237.7598,10.478516 549.74212,97.079322 39.197737,643.84265 2.0234375,1333.9102 -19.253791,1728.8896 127.92348,2110.1518 410.06445,2390.9824 c 204.0514,203.1056 452.10609,335.059 735.38285,391.1719 117.3581,23.2477 416.5228,20.2793 534.664,-5.2969 196.2165,-42.4796 380.9836,-122.6424 531.3516,-230.5273 l 85.1133,-61.0703 60.8496,60.8496 60.8496,60.8496 -11.2813,50.2969 c -11.3914,50.8235 -3.8805,110.7424 19.0528,152.1445 10.1071,18.2484 242.497,252.9343 485.959,494.6699 h 391.8496 v -185.1484 c -32.5771,-32.3628 -66.2173,-65.8813 -100.7403,-100.4121 -360.5497,-360.6356 -448.9726,-454.7619 -437.7363,-465.9961 0.7007,-0.7008 1.731,-1.0176 3.1367,-0.8809 v 0 c 21.043,1.9055 126.0152,101.8712 467.8515,443.6328 23.002,22.9965 45.4175,45.479 67.4903,67.6543 V 2915.3906 C 2757.833,2371.4166 2790.3159,2397.647 2660.6133,2411.0332 l -59.5899,6.1621 -59.6132,-60.3652 -59.6133,-60.3867 34.0683,-43.2071 c 322.8587,-409.7158 376.9,-1011.7969 133.6211,-1488.51755 C 2408.7769,293.02982 1915.8957,-2.4508947 1398.7598,0.015625 Z m 31.832,220.79492125 c 146.6099,0.16361 184.5529,4.39313 263.1211,25.82617 576.3611,157.21852 945.8724,683.08103 891.7911,1269.16409 -47.473,514.4771 -434.3702,946.0261 -942.6602,1051.4863 -96.0423,19.9271 -342.0462,27.69 -423.916,13.3809 C 1060.5647,2552.9862 869.72357,2477.2605 736.23633,2389.1074 589.65906,2292.3089 400.8157,2076.1876 332.76758,1927.3906 143.03681,1512.5123 177.58571,1081.8809 430.04492,715.58984 495.24442,620.99254 642.07393,476.5296 736.23633,414.34375 832.9242,350.49415 996.57018,276.45281 1105.8828,247.07617 c 82.3741,-22.13643 124.2984,-25.91058 293.8926,-26.25195 10.7841,-0.0214 21.0405,-0.0285 30.8144,-0.0176 z m -53.5859,203.4668 c -62.735,-0.0574 -114.8347,4.49726 -132.5098,14.38086 -34.4999,19.29774 -44.7787,65.15195 -20.5996,91.87109 16.3548,18.06898 41.6995,21.62279 185.043,25.98633 189.5467,5.76964 288.9453,31.0958 420.4277,107.10547 111.8597,64.6622 265.866,225.17991 325.7071,339.46291 26.8105,51.2012 57.3352,98.0903 67.8281,104.2129 26.3833,15.3875 29.081,14.8834 62.7695,-11.6153 37.923,-29.8312 37.4183,-41.1756 -5.6308,-126.66598 C 2227.8283,865.33315 2185.4275,805.95058 2101.9512,719.63086 1975.4115,588.78498 1821.5033,498.70428 1642.8418,450.92969 1582.372,434.75856 1477.521,425.26756 1389.6855,424.34766 c -4.2698,-0.0446 -8.4993,-0.0704 -12.6816,-0.0742 z m 931.8496,785.26566 c -51.9882,0 -64.8254,29.274 -56.8105,129.4277 5.8456,72.9778 11.976,94.9304 30.955,110.793 31.0917,25.9919 49.9049,24.9622 79.2188,-4.3516 21.8839,-21.8852 23.4448,-32.0931 16.9121,-109.3555 -7.8149,-92.4883 -26.7126,-126.5136 -70.2754,-126.5136 z"
       transform="matrix(0.26458333,0,0,0.26458333,-272.50125,-441.77958)"
       id="path850"
       inkscape:connector-curvature="0" />
  </g>
  <style
     id="style935"
     type="text/css">.st0{fill:#3DDC84;}</style>
</svg>
